<svg version="1.0" xmlns="http://www.w3.org/2000/svg" width="80.000000pt" height="80.000000pt" viewBox="0 0 80.000000 80.000000" preserveAspectRatio="xMidYMid meet">
    <g transform="translate(0.000000,80.000000) scale(0.100000,-0.100000)" fill="#000000" stroke="none">
        <path d="M40 792 c0 -39 59 -715 63 -718 3 -3 156 -45 222 -61 36 -8 79 -12 106 -9 50 7 250 64 261 74 3 4 11 63 18 132 19 208 50 564 50 578 0 9 -79 12 -360 12 -198 0 -360 -3 -360 -8z m580 -190 l0 -49 -72 -29 -73 -29 62 -5 c34 -3 64 -7 66 -10 3 -3 0 -66 -6 -140 l-12 -134 -85 -29 -85 -28 -85 22 c-124 32 -120 28 -120 110 l0 70 42 -3 c39 -3 43 -6 48 -33 4 -24 13 -32 44 -43 38 -12 109 -9 133 6 6 4 14 28 18 55 l7 47 -146 0 -146 0 -10 26 c-23 58 -16 68 73 105 l82 34 -80 3 c-48 2 -82 8 -87 15 -4 7 -8 29 -8 50 l0 37 220 0 220 0 0 -48z"/>
    </g>
</svg>
