<svg version="1.0" xmlns="http://www.w3.org/2000/svg" width="80.000000pt" height="80.000000pt" viewBox="0 0 80.000000 80.000000" preserveAspectRatio="xMidYMid meet">
    <g transform="translate(0.000000,80.000000) scale(0.100000,-0.100000)" fill="#000000" stroke="none">
        <path d="M35 753 c3 -27 9 -104 15 -173 5 -69 15 -174 20 -235 6 -60 13 -145 17 -188 3 -42 12 -82 19 -87 20 -18 242 -70 293 -70 25 1 102 15 171 33 l125 32 7 70 c14 139 58 629 58 653 0 9 -80 12 -365 12 l-366 0 6 -47z m575 -140 c0 -55 -4 -56 -176 -52 l-159 4 -3 -38 c-6 -65 1 -68 171 -60 l150 6 -7 -114 c-11 -163 -5 -153 -95 -178 -43 -11 -86 -21 -96 -21 -12 0 -156 37 -172 44 -1 1 -5 29 -9 64 l-7 62 41 0 c39 0 41 -2 44 -32 3 -29 8 -34 52 -46 41 -12 56 -12 100 0 l51 15 7 54 c3 29 4 57 2 61 -3 5 -72 8 -153 8 l-148 0 -7 93 c-4 50 -10 107 -13 125 l-5 32 216 0 216 0 0 -27z"/>
    </g>
</svg>
