<svg viewBox="0 0 500 500" xmlns="http://www.w3.org/2000/svg" xmlns:bx="https://boxy-svg.com">
  <defs></defs>
  <circle id = "sun-circle" style="stroke: rgb(0, 0, 0); stroke-width: 0px;" cx="250" cy="250" r="100"></circle>
  <path  class = "sun-triangles" id = "sun-triangle-0" d="M 248.067 16.713 Q 249.227 13.233 250.387 16.713 L 288.067 129.753 Q 289.227 133.233 286.907 133.233 L 211.547 133.233 Q 209.227 133.233 210.387 129.753 Z" style="stroke: rgb(0, 0, 0); stroke-width: 0px;" bx:shape="triangle 209.227 13.233 80 120 0.5 0.029 1@f9c41abc"></path>
  <path  class = "sun-triangles" id = "sun-triangle-0" d="M 142.98 43.744 Q 144.14 40.264 145.3 43.744 L 182.98 156.784 Q 184.14 160.264 181.82 160.264 L 106.46 160.264 Q 104.14 160.264 105.3 156.784 Z" style="stroke: rgb(0, 0, 0); transform-box: fill-box; transform-origin: 50% 50%; stroke-width: 0px;" transform="matrix(0.707103, -0.707111, 0.707111, 0.707103, -20.794289, 26.414613)" bx:shape="triangle 104.14 40.264 80 120 0.5 0.029 1@62c4535f"></path>
  <path  class = "sun-triangles" id = "sun-triangle-0" d="M 142.98 43.744 Q 144.14 40.264 145.3 43.744 L 182.98 156.784 Q 184.14 160.264 181.82 160.264 L 106.46 160.264 Q 104.14 160.264 105.3 156.784 Z" style="stroke: rgb(0, 0, 0); transform-origin: 144.14px 101.134px; stroke-width: 0px;" transform="matrix(-0.000076, -1, 1, -0.000076, -70.888177, 153.097155)" bx:shape="triangle 104.14 40.264 80 120 0.5 0.029 1@62c4535f"></path>
  <path  class = "sun-triangles" id = "sun-triangle-0" d="M 142.98 43.744 Q 144.14 40.264 145.3 43.744 L 182.98 156.784 Q 184.14 160.264 181.82 160.264 L 106.46 160.264 Q 104.14 160.264 105.3 156.784 Z" style="stroke: rgb(0, 0, 0); transform-origin: 45.1794% 50.7951%; transform-box: fill-box; stroke-width: 0px;" transform="matrix(-0.707107, -0.707106, 0.707106, -0.707107, -9.449911, 275.997021)" bx:shape="triangle 104.14 40.264 80 120 0.5 0.029 1@62c4535f"></path>
  <path  class = "sun-triangles" id = "sun-triangle-0" d="M 142.98 43.744 Q 144.14 40.264 145.3 43.744 L 182.98 156.784 Q 184.14 160.264 181.82 160.264 L 106.46 160.264 Q 104.14 160.264 105.3 156.784 Z" style="stroke: rgb(0, 0, 0); transform-origin: 140.358px 102.074px; stroke-width: 0px;" transform="matrix(-1, 0.000072, -0.000072, -1, 112.654871, 323.618566)" bx:shape="triangle 104.14 40.264 80 120 0.5 0.029 1@62c4535f"></path>
  <path  class = "sun-triangles" id = "sun-triangle-0" d="M 142.98 43.744 Q 144.14 40.264 145.3 43.744 L 182.98 156.784 Q 184.14 160.264 181.82 160.264 L 106.46 160.264 Q 104.14 160.264 105.3 156.784 Z" style="stroke: rgb(0, 0, 0); transform-origin: 140.358px 102.074px; stroke-width: 0px;" transform="matrix(-0.707146, 0.707067, -0.707067, -0.707146, 233.460903, 271.271192)" bx:shape="triangle 104.14 40.264 80 120 0.5 0.029 1@62c4535f"></path>
  <path  class = "sun-triangles" id = "sun-triangle-0" d="M 142.98 43.744 Q 144.14 40.264 145.3 43.744 L 182.98 156.784 Q 184.14 160.264 181.82 160.264 L 106.46 160.264 Q 104.14 160.264 105.3 156.784 Z" style="stroke: rgb(0, 0, 0); transform-origin: 140.358px 102.074px; stroke-width: 0px;" transform="matrix(-0.000039, 1, -1, -0.000039, 284.500676, 148.372927)" bx:shape="triangle 104.14 40.264 80 120 0.5 0.029 1@62c4535f"></path>
  <path  class = "sun-triangles" id = "sun-triangle-0" d="M 142.98 43.744 Q 144.14 40.264 145.3 43.744 L 182.98 156.784 Q 184.14 160.264 181.82 160.264 L 106.46 160.264 Q 104.14 160.264 105.3 156.784 Z" style="stroke: rgb(0, 0, 0); transform-origin: 140.358px 102.074px; stroke-width: 0px;" transform="matrix(0.707139, 0.707075, -0.707075, 0.707139, 231.570551, 23.465821)" bx:shape="triangle 104.14 40.264 80 120 0.5 0.029 1@62c4535f"></path>
</svg>