<?xml version="1.0" encoding="UTF-8"?>
<!DOCTYPE svg PUBLIC "-//W3C//DTD SVG 1.1//EN" "http://www.w3.org/Graphics/SVG/1.1/DTD/svg11.dtd">
<svg xmlns="http://www.w3.org/2000/svg" version="1.1" width="512px" height="512px" style="shape-rendering:geometricPrecision; text-rendering:geometricPrecision; image-rendering:optimizeQuality; fill-rule:evenodd; clip-rule:evenodd" xmlns:xlink="http://www.w3.org/1999/xlink">
<g><path style="opacity:0.992" fill="#000000" d="M 511.5,139.5 C 511.5,167.167 511.5,194.833 511.5,222.5C 506.349,239.15 495.349,249.984 478.5,255C 418.168,255.5 357.834,255.667 297.5,255.5C 297.666,250.821 297.499,246.155 297,241.5C 295.878,239.376 294.378,237.543 292.5,236C 280.234,234.863 267.9,234.363 255.5,234.5C 243.1,234.363 230.766,234.863 218.5,236C 216.622,237.543 215.122,239.376 214,241.5C 213.501,246.155 213.334,250.821 213.5,255.5C 153.166,255.667 92.8324,255.5 32.5,255C 15.651,249.984 4.651,239.15 -0.5,222.5C -0.5,194.833 -0.5,167.167 -0.5,139.5C 3.88471,122.614 14.5514,111.781 31.5,107C 70.4601,105.53 109.46,105.03 148.5,105.5C 148.334,96.1607 148.5,86.8274 149,77.5C 153.727,57.4393 166.227,45.606 186.5,42C 232.5,41.3333 278.5,41.3333 324.5,42C 344.773,45.606 357.273,57.4393 362,77.5C 362.5,86.8274 362.666,96.1607 362.5,105.5C 401.54,105.03 440.54,105.53 479.5,107C 496.449,111.781 507.115,122.614 511.5,139.5 Z M 191.5,85.5 C 234.167,85.5 276.833,85.5 319.5,85.5C 319.5,92.1667 319.5,98.8333 319.5,105.5C 276.833,105.5 234.167,105.5 191.5,105.5C 191.5,98.8333 191.5,92.1667 191.5,85.5 Z"/></g>
<g><path style="opacity:0.994" fill="#000000" d="M 511.5,271.5 C 511.5,326.167 511.5,380.833 511.5,435.5C 506.377,454.449 494.044,465.616 474.5,469C 328.5,469.667 182.5,469.667 36.5,469C 16.965,465.625 4.63165,454.459 -0.5,435.5C -0.5,380.833 -0.5,326.167 -0.5,271.5C 3.1633,266.346 8.1633,264.513 14.5,266C 21.323,271.244 28.9897,274.577 37.5,276C 96.1657,276.5 154.832,276.667 213.5,276.5C 213.039,289.266 213.539,301.933 215,314.5C 217.194,317.181 220.027,318.681 223.5,319C 244.833,319.667 266.167,319.667 287.5,319C 290.973,318.681 293.806,317.181 296,314.5C 297.461,301.933 297.961,289.266 297.5,276.5C 356.168,276.667 414.834,276.5 473.5,276C 482.01,274.577 489.677,271.244 496.5,266C 502.837,264.513 507.837,266.346 511.5,271.5 Z"/></g>
</svg>
