<?xml version="1.0" encoding="UTF-8"?>
<!DOCTYPE svg PUBLIC "-//W3C//DTD SVG 1.1//EN" "http://www.w3.org/Graphics/SVG/1.1/DTD/svg11.dtd">
<svg xmlns="http://www.w3.org/2000/svg" version="1.1" width="512px" height="512px" style="shape-rendering:geometricPrecision; text-rendering:geometricPrecision; image-rendering:optimizeQuality; fill-rule:evenodd; clip-rule:evenodd" xmlns:xlink="http://www.w3.org/1999/xlink">
<g><path style="opacity:0.973" fill="#000000" d="M 301.5,63.5 C 317.181,63.1673 332.848,63.5006 348.5,64.5C 301.868,192.09 255.534,319.757 209.5,447.5C 193.819,447.833 178.152,447.499 162.5,446.5C 209.132,318.91 255.466,191.243 301.5,63.5 Z"/></g>
<g><path style="opacity:0.97" fill="#000000" d="M -0.5,256.5 C -0.5,255.833 -0.5,255.167 -0.5,254.5C 39.632,214.868 79.632,175.035 119.5,135C 120.167,134.333 120.833,134.333 121.5,135C 131.543,144.708 141.209,154.708 150.5,165C 121.027,195.307 91.3601,225.474 61.5,255.5C 90.8195,285.32 120.32,314.986 150,344.5C 150.667,345.5 150.667,346.5 150,347.5C 140.5,357 131,366.5 121.5,376C 120.833,376.667 120.167,376.667 119.5,376C 79.632,335.965 39.632,296.132 -0.5,256.5 Z"/></g>
<g><path style="opacity:0.97" fill="#000000" d="M 511.5,254.5 C 511.5,255.167 511.5,255.833 511.5,256.5C 471.368,296.132 431.368,335.965 391.5,376C 390.833,376.667 390.167,376.667 389.5,376C 379.457,366.292 369.791,356.292 360.5,346C 389.973,315.693 419.64,285.526 449.5,255.5C 420.18,225.68 390.68,196.014 361,166.5C 360.333,165.5 360.333,164.5 361,163.5C 370.5,154 380,144.5 389.5,135C 390.167,134.333 390.833,134.333 391.5,135C 431.368,175.035 471.368,214.868 511.5,254.5 Z"/></g>
</svg>
