<svg viewBox="0 0 500 500" xmlns="http://www.w3.org/2000/svg" xmlns:bx="https://boxy-svg.com">
  <defs></defs>
  <path style="stroke: rgb(0, 0, 0); stroke-width: 0px; vector-effect: non-scaling-stroke; fill: rgb(255, 126, 71);" d="M 237.5 10 H 250 V 490 H 237.5 A 12.5 12.5 0 0 1 225 477.5 V 22.5 A 12.5 12.5 0 0 1 237.5 10 Z" bx:shape="rect 225 10 25 480 12.5 0 0 12.5 1@32914711"></path>
  <rect x="353.988" width="50" height="500" style="stroke: rgb(0, 0, 0); stroke-width: 0px; vector-effect: non-scaling-stroke; fill: rgb(255, 126, 71);" rx="25" ry="25" y="10.183" transform="matrix(0.499943, -0.866058, 0.866058, 0.499943, -170.792892, 441.592834)" bx:origin="0.446303 0.516925"></rect>
  <rect x="449.033" width="50" height="500" style="stroke: rgb(0, 0, 0); stroke-width: 0px; vector-effect: non-scaling-stroke; fill: rgb(255, 126, 71);" rx="25" ry="25" y="10.183" transform="matrix(0.5, 0.866025, -0.866025, 0.5, 232.763016, -296.161865)" bx:origin="0.651513 0.495941"></rect>
  <path style="stroke-width: 0px; vector-effect: non-scaling-stroke; stroke: rgb(203, 62, 62); fill: rgb(255, 57, 56);" d="M 250 10 H 262.5 A 12.5 12.5 0 0 1 275 22.5 V 477.5 A 12.5 12.5 0 0 1 262.5 490 H 250 V 10 Z" bx:shape="rect 250 10 25 480 0 12.5 12.5 0 1@919fd6e6"></path>
  <rect x="353.988" width="50" height="237.494" style="stroke: rgb(0, 0, 0); stroke-width: 0px; vector-effect: non-scaling-stroke; fill: rgb(255, 57, 56);" rx="25" ry="25" y="4.837" transform="matrix(0.499943, -0.866058, 0.866058, 0.499943, 61.303432, 575.573425)" bx:origin="0.446303 0.516925"></rect>
  <rect x="449.033" width="50" height="230.779" style="stroke: rgb(0, 0, 0); stroke-width: 0px; vector-effect: non-scaling-stroke; fill: rgb(255, 57, 56);" rx="25" ry="25" y="4.7" transform="matrix(0.5, 0.866025, -0.866025, 0.5, 228.014648, -293.42038)" bx:origin="0.651513 0.495941"></rect>
</svg>